<mxfile host="app.diagrams.net" modified="2023-07-26T04:07:23.317Z" agent="Mozilla/5.0 (Windows NT 10.0; Win64; x64) AppleWebKit/537.36 (KHTML, like Gecko) Chrome/115.0.0.0 Safari/537.36" version="21.5.1" etag="hHmIhXAPyVeQDttyO6Kt" type="github">
  <diagram name="Page-1" id="zdyX4q1AYIdZKqZU8pMx">
    <mxGraphModel>
      <root>
        <mxCell id="0" />
        <mxCell id="1" parent="0" />
      </root>
    </mxGraphModel>
  </diagram>
</mxfile>
